<svg width="512" height="512" viewBox="0 0 512 512" fill="none" xmlns="http://www.w3.org/2000/svg">
    <rect width="512" height="512" rx="0" fill="black"/>
    <g filter="url(#filter0_d_517_2)">
        <path d="M36.7923 352.827C36.1523 352.827 35.6403 352.635 35.2563 352.251C34.8723 351.867 34.6803 351.355 34.6803 350.715V287.835C34.6803 287.131 34.8723 286.587 35.2563 286.203C35.6403 285.819 36.1523 285.627 36.7923 285.627H57.2403C64.0243 285.627 69.3363 286.619 73.1763 288.603C77.0163 290.587 79.7363 293.531 81.3363 297.435C83.0003 301.275 83.8643 305.979 83.9283 311.547C83.9923 314.427 84.0243 316.987 84.0243 319.227C84.0243 321.403 83.9923 323.931 83.9283 326.811C83.8003 332.699 82.9363 337.563 81.3363 341.403C79.7363 345.243 77.0483 348.123 73.2723 350.043C69.4963 351.899 64.3123 352.827 57.7203 352.827H36.7923ZM40.7283 347.067H57.2403C62.3603 347.067 66.3923 346.395 69.3363 345.051C72.3443 343.643 74.4883 341.435 75.7683 338.427C77.1123 335.355 77.8163 331.323 77.8803 326.331C77.9443 324.411 77.9763 322.747 77.9763 321.339C77.9763 319.867 77.9763 318.427 77.9763 317.019C77.9763 315.611 77.9443 313.947 77.8803 312.027C77.7523 304.987 76.1203 299.803 72.9843 296.475C69.8483 293.083 64.4403 291.387 56.7603 291.387H40.7283V347.067ZM116.929 353.787C110.721 353.787 105.793 351.771 102.145 347.739C98.497 343.643 96.417 338.299 95.905 331.707C95.841 330.747 95.809 329.467 95.809 327.867C95.809 326.267 95.841 324.987 95.905 324.027C96.225 319.675 97.249 315.835 98.977 312.507C100.705 309.179 103.073 306.587 106.081 304.731C109.153 302.875 112.769 301.947 116.929 301.947C121.409 301.947 125.217 302.939 128.353 304.923C131.489 306.907 133.889 309.755 135.553 313.467C137.281 317.179 138.145 321.595 138.145 326.715V328.155C138.145 328.795 137.921 329.307 137.473 329.691C137.089 330.075 136.577 330.267 135.937 330.267H101.761C101.761 330.267 101.761 330.395 101.761 330.651C101.761 330.907 101.761 331.099 101.761 331.227C101.889 334.107 102.561 336.859 103.777 339.483C104.993 342.043 106.721 344.155 108.961 345.819C111.201 347.419 113.857 348.219 116.929 348.219C119.681 348.219 121.953 347.803 123.745 346.971C125.601 346.139 127.073 345.243 128.161 344.283C129.249 343.259 129.953 342.491 130.273 341.979C130.849 341.147 131.297 340.667 131.617 340.539C131.937 340.347 132.449 340.251 133.153 340.251H134.689C135.265 340.251 135.745 340.443 136.129 340.827C136.577 341.147 136.769 341.595 136.705 342.171C136.641 343.067 136.129 344.187 135.169 345.531C134.273 346.811 132.961 348.091 131.233 349.371C129.569 350.651 127.521 351.707 125.089 352.539C122.657 353.371 119.937 353.787 116.929 353.787ZM101.761 324.891H132.289V324.507C132.289 321.307 131.681 318.427 130.465 315.867C129.249 313.307 127.489 311.291 125.185 309.819C122.881 308.283 120.129 307.515 116.929 307.515C113.729 307.515 110.977 308.283 108.673 309.819C106.433 311.291 104.705 313.307 103.489 315.867C102.337 318.427 101.761 321.307 101.761 324.507V324.891ZM153.015 371.067C152.375 371.067 151.863 370.875 151.479 370.491C151.095 370.107 150.903 369.595 150.903 368.955V305.019C150.903 304.379 151.095 303.867 151.479 303.483C151.863 303.099 152.375 302.907 153.015 302.907H154.647C155.287 302.907 155.799 303.099 156.183 303.483C156.567 303.867 156.759 304.379 156.759 305.019V309.531C158.359 307.355 160.439 305.563 162.999 304.155C165.623 302.683 168.919 301.947 172.887 301.947C176.663 301.947 179.831 302.619 182.391 303.963C184.951 305.243 187.031 306.971 188.631 309.147C190.231 311.323 191.415 313.755 192.183 316.443C192.951 319.131 193.367 321.883 193.431 324.699C193.495 325.659 193.527 326.715 193.527 327.867C193.527 329.019 193.495 330.075 193.431 331.035C193.367 333.851 192.951 336.603 192.183 339.291C191.415 341.979 190.231 344.411 188.631 346.587C187.031 348.763 184.951 350.523 182.391 351.867C179.831 353.147 176.663 353.787 172.887 353.787C168.919 353.787 165.623 353.051 162.999 351.579C160.439 350.107 158.359 348.315 156.759 346.203V368.955C156.759 369.595 156.567 370.107 156.183 370.491C155.799 370.875 155.287 371.067 154.647 371.067H153.015ZM172.311 348.219C176.087 348.219 179.063 347.387 181.239 345.723C183.415 344.059 184.983 341.883 185.943 339.195C186.903 336.507 187.447 333.627 187.575 330.555C187.639 328.763 187.639 326.971 187.575 325.179C187.447 322.107 186.903 319.227 185.943 316.539C184.983 313.851 183.415 311.675 181.239 310.011C179.063 308.347 176.087 307.515 172.311 307.515C168.663 307.515 165.719 308.379 163.479 310.107C161.239 311.835 159.575 314.011 158.487 316.635C157.463 319.195 156.887 321.787 156.759 324.411C156.695 325.371 156.663 326.619 156.663 328.155C156.663 329.691 156.695 330.939 156.759 331.899C156.823 334.459 157.399 336.987 158.487 339.483C159.639 341.979 161.335 344.059 163.575 345.723C165.879 347.387 168.791 348.219 172.311 348.219ZM222.732 352.827C219.404 352.827 216.78 352.123 214.86 350.715C212.94 349.307 211.596 347.387 210.828 344.955C210.06 342.523 209.676 339.803 209.676 336.795V308.475H202.188C201.548 308.475 201.036 308.283 200.652 307.899C200.268 307.515 200.076 307.003 200.076 306.363V305.019C200.076 304.379 200.268 303.867 200.652 303.483C201.036 303.099 201.548 302.907 202.188 302.907H209.676V286.779C209.676 286.139 209.868 285.627 210.252 285.243C210.636 284.859 211.148 284.667 211.788 284.667H213.42C214.06 284.667 214.572 284.859 214.956 285.243C215.34 285.627 215.532 286.139 215.532 286.779V302.907H227.436C228.076 302.907 228.588 303.099 228.972 303.483C229.356 303.867 229.548 304.379 229.548 305.019V306.363C229.548 307.003 229.356 307.515 228.972 307.899C228.588 308.283 228.076 308.475 227.436 308.475H215.532V336.411C215.532 339.803 216.076 342.459 217.164 344.379C218.316 346.299 220.332 347.259 223.212 347.259H228.396C229.036 347.259 229.548 347.451 229.932 347.835C230.316 348.219 230.508 348.731 230.508 349.371V350.715C230.508 351.355 230.316 351.867 229.932 352.251C229.548 352.635 229.036 352.827 228.396 352.827H222.732ZM242.64 352.827C242 352.827 241.488 352.635 241.104 352.251C240.72 351.867 240.528 351.355 240.528 350.715V286.779C240.528 286.139 240.72 285.627 241.104 285.243C241.488 284.859 242 284.667 242.64 284.667H244.272C244.912 284.667 245.424 284.859 245.808 285.243C246.192 285.627 246.384 286.139 246.384 286.779V309.531C248.112 307.291 250.192 305.467 252.624 304.059C255.12 302.651 258.416 301.947 262.512 301.947C266.864 301.947 270.48 302.907 273.36 304.827C276.304 306.683 278.48 309.243 279.888 312.507C281.36 315.707 282.096 319.355 282.096 323.451V350.715C282.096 351.355 281.904 351.867 281.52 352.251C281.136 352.635 280.624 352.827 279.984 352.827H278.352C277.712 352.827 277.2 352.635 276.816 352.251C276.432 351.867 276.24 351.355 276.24 350.715V323.931C276.24 318.811 274.992 314.811 272.496 311.931C270 308.987 266.352 307.515 261.552 307.515C257.008 307.515 253.328 308.987 250.512 311.931C247.76 314.811 246.384 318.811 246.384 323.931V350.715C246.384 351.355 246.192 351.867 245.808 352.251C245.424 352.635 244.912 352.827 244.272 352.827H242.64ZM319.231 353.787C315.263 353.787 311.967 353.083 309.343 351.675C306.783 350.203 304.703 348.379 303.103 346.203V350.715C303.103 351.355 302.911 351.867 302.527 352.251C302.143 352.635 301.631 352.827 300.991 352.827H299.359C298.719 352.827 298.207 352.635 297.823 352.251C297.439 351.867 297.247 351.355 297.247 350.715V286.779C297.247 286.139 297.439 285.627 297.823 285.243C298.207 284.859 298.719 284.667 299.359 284.667H300.991C301.631 284.667 302.143 284.859 302.527 285.243C302.911 285.627 303.103 286.139 303.103 286.779V309.531C304.703 307.419 306.783 305.627 309.343 304.155C311.967 302.683 315.263 301.947 319.231 301.947C323.007 301.947 326.175 302.619 328.735 303.963C331.295 305.307 333.375 307.099 334.975 309.339C336.575 311.579 337.759 314.075 338.527 316.827C339.295 319.579 339.711 322.363 339.775 325.179C339.839 326.139 339.871 327.035 339.871 327.867C339.871 328.699 339.839 329.595 339.775 330.555C339.711 333.371 339.295 336.155 338.527 338.907C337.759 341.659 336.575 344.155 334.975 346.395C333.375 348.635 331.295 350.427 328.735 351.771C326.175 353.115 323.007 353.787 319.231 353.787ZM318.655 348.219C322.431 348.219 325.407 347.387 327.583 345.723C329.759 344.059 331.327 341.883 332.287 339.195C333.247 336.507 333.791 333.627 333.919 330.555C333.983 328.763 333.983 326.971 333.919 325.179C333.791 322.107 333.247 319.227 332.287 316.539C331.327 313.851 329.759 311.675 327.583 310.011C325.407 308.347 322.431 307.515 318.655 307.515C315.135 307.515 312.223 308.347 309.919 310.011C307.679 311.675 305.983 313.755 304.831 316.251C303.743 318.747 303.167 321.275 303.103 323.835C303.039 324.795 303.007 326.043 303.007 327.579C303.007 329.115 303.039 330.363 303.103 331.323C303.231 333.947 303.807 336.571 304.831 339.195C305.919 341.755 307.583 343.899 309.823 345.627C312.063 347.355 315.007 348.219 318.655 348.219ZM371.847 353.787C367.239 353.787 363.367 352.827 360.231 350.907C357.159 348.987 354.791 346.363 353.127 343.035C351.527 339.707 350.663 335.995 350.535 331.899C350.471 330.939 350.439 329.595 350.439 327.867C350.439 326.139 350.471 324.795 350.535 323.835C350.663 319.675 351.527 315.963 353.127 312.699C354.791 309.371 357.159 306.747 360.231 304.827C363.367 302.907 367.239 301.947 371.847 301.947C376.455 301.947 380.295 302.907 383.367 304.827C386.503 306.747 388.871 309.371 390.471 312.699C392.135 315.963 393.031 319.675 393.159 323.835C393.223 324.795 393.255 326.139 393.255 327.867C393.255 329.595 393.223 330.939 393.159 331.899C393.031 335.995 392.135 339.707 390.471 343.035C388.871 346.363 386.503 348.987 383.367 350.907C380.295 352.827 376.455 353.787 371.847 353.787ZM371.847 348.219C376.327 348.219 379.975 346.779 382.791 343.899C385.607 341.019 387.111 336.859 387.303 331.419C387.367 330.459 387.399 329.275 387.399 327.867C387.399 326.459 387.367 325.275 387.303 324.315C387.111 318.811 385.607 314.651 382.791 311.835C379.975 308.955 376.327 307.515 371.847 307.515C367.367 307.515 363.719 308.955 360.903 311.835C358.087 314.651 356.583 318.811 356.391 324.315C356.327 325.275 356.295 326.459 356.295 327.867C356.295 329.275 356.327 330.459 356.391 331.419C356.583 336.859 358.087 341.019 360.903 343.899C363.719 346.779 367.367 348.219 371.847 348.219ZM425.378 353.787C420.77 353.787 416.898 352.827 413.762 350.907C410.69 348.987 408.322 346.363 406.658 343.035C405.058 339.707 404.194 335.995 404.066 331.899C404.002 330.939 403.97 329.595 403.97 327.867C403.97 326.139 404.002 324.795 404.066 323.835C404.194 319.675 405.058 315.963 406.658 312.699C408.322 309.371 410.69 306.747 413.762 304.827C416.898 302.907 420.77 301.947 425.378 301.947C429.986 301.947 433.826 302.907 436.898 304.827C440.034 306.747 442.402 309.371 444.002 312.699C445.666 315.963 446.562 319.675 446.69 323.835C446.754 324.795 446.786 326.139 446.786 327.867C446.786 329.595 446.754 330.939 446.69 331.899C446.562 335.995 445.666 339.707 444.002 343.035C442.402 346.363 440.034 348.987 436.898 350.907C433.826 352.827 429.986 353.787 425.378 353.787ZM425.378 348.219C429.858 348.219 433.506 346.779 436.322 343.899C439.138 341.019 440.642 336.859 440.834 331.419C440.898 330.459 440.93 329.275 440.93 327.867C440.93 326.459 440.898 325.275 440.834 324.315C440.642 318.811 439.138 314.651 436.322 311.835C433.506 308.955 429.858 307.515 425.378 307.515C420.898 307.515 417.25 308.955 414.434 311.835C411.618 314.651 410.114 318.811 409.922 324.315C409.858 325.275 409.826 326.459 409.826 327.867C409.826 329.275 409.858 330.459 409.922 331.419C410.114 336.859 411.618 341.019 414.434 343.899C417.25 346.779 420.898 348.219 425.378 348.219ZM476.139 352.827C472.811 352.827 470.187 352.123 468.267 350.715C466.347 349.307 465.003 347.387 464.234 344.955C463.467 342.523 463.083 339.803 463.083 336.795V308.475H455.595C454.955 308.475 454.443 308.283 454.059 307.899C453.675 307.515 453.483 307.003 453.483 306.363V305.019C453.483 304.379 453.675 303.867 454.059 303.483C454.443 303.099 454.955 302.907 455.595 302.907H463.083V286.779C463.083 286.139 463.275 285.627 463.659 285.243C464.043 284.859 464.555 284.667 465.195 284.667H466.827C467.467 284.667 467.979 284.859 468.363 285.243C468.747 285.627 468.939 286.139 468.939 286.779V302.907H480.843C481.483 302.907 481.995 303.099 482.379 303.483C482.763 303.867 482.955 304.379 482.955 305.019V306.363C482.955 307.003 482.763 307.515 482.379 307.899C481.995 308.283 481.483 308.475 480.843 308.475H468.939V336.411C468.939 339.803 469.483 342.459 470.571 344.379C471.723 346.299 473.739 347.259 476.619 347.259H481.803C482.443 347.259 482.955 347.451 483.339 347.835C483.723 348.219 483.915 348.731 483.915 349.371V350.715C483.915 351.355 483.723 351.867 483.339 352.251C482.955 352.635 482.443 352.827 481.803 352.827H476.139Z"
              fill="url(#paint0_linear_517_2)"/>
        <path d="M267.355 234.546C265.203 234.546 263.513 233.871 262.283 232.522C261.054 231.172 260.439 229.316 260.439 226.955C260.439 224.593 261.054 222.737 262.283 221.388C263.513 220.038 265.203 219.363 267.355 219.363H341.129C343.28 219.363 345.048 220.038 346.431 221.388C347.814 222.737 348.506 224.593 348.506 226.955C348.506 229.316 347.814 231.172 346.431 232.522C345.048 233.871 343.28 234.546 341.129 234.546H267.355ZM161.305 223.918C159.768 222.569 159 220.797 159 218.604C159 216.411 159.768 214.64 161.305 213.29L198.664 172.286C201.794 168.851 201.794 163.598 198.664 160.163L160.844 118.652C159.922 117.64 159.384 116.037 159.231 113.844C159.077 111.651 159.768 109.711 161.305 108.024C162.228 106.675 163.765 106 165.916 106C168.068 106 169.759 106.675 170.988 108.024L214.791 156.609C216.021 157.958 216.943 159.392 217.558 160.91C218.173 162.429 218.48 164.2 218.48 166.224C218.48 168.249 218.173 169.936 217.558 171.285C216.943 172.635 216.021 174.153 214.791 175.84L170.988 223.918C169.759 225.605 168.145 226.364 166.147 226.196C164.149 226.027 162.535 225.268 161.305 223.918Z"
              fill="white"/>
    </g>
    <defs>
        <filter id="filter0_d_517_2" x="18.6803" y="90" width="481.234" height="297.067" filterUnits="userSpaceOnUse"
                color-interpolation-filters="sRGB">
            <feFlood flood-opacity="0" result="BackgroundImageFix"/>
            <feColorMatrix in="SourceAlpha" type="matrix" values="0 0 0 0 0 0 0 0 0 0 0 0 0 0 0 0 0 0 127 0"
                           result="hardAlpha"/>
            <feOffset/>
            <feGaussianBlur stdDeviation="8"/>
            <feComposite in2="hardAlpha" operator="out"/>
            <feColorMatrix type="matrix" values="0 0 0 0 0 0 0 0 0 0 0 0 0 0 0 0 0 0 0.25 0"/>
            <feBlend mode="normal" in2="BackgroundImageFix" result="effect1_dropShadow_517_2"/>
            <feBlend mode="normal" in="SourceGraphic" in2="effect1_dropShadow_517_2" result="shape"/>
        </filter>
        <linearGradient id="paint0_linear_517_2" x1="36" y1="283" x2="483" y2="353" gradientUnits="userSpaceOnUse">
            <stop stop-color="#2391F6"/>
            <stop offset="1" stop-color="#274D71"/>
        </linearGradient>
    </defs>
</svg>