<svg width="512" height="512" viewBox="0 0 512 512" fill="none" xmlns="http://www.w3.org/2000/svg">
    <rect width="512" height="512" rx="0" fill="black"/>
    <g filter="url(#filter0_d_304_2)">
        <path d="M41.8548 352.827C41.2148 352.827 40.7028 352.635 40.3188 352.251C39.9348 351.867 39.7428 351.355 39.7428 350.715V287.835C39.7428 287.131 39.9348 286.587 40.3188 286.203C40.7028 285.819 41.2148 285.627 41.8548 285.627H79.2948C79.9988 285.627 80.5428 285.819 80.9268 286.203C81.3108 286.587 81.5028 287.131 81.5028 287.835V289.275C81.5028 289.915 81.3108 290.427 80.9268 290.811C80.5428 291.195 79.9988 291.387 79.2948 291.387H45.7908V315.867H77.1828C77.8868 315.867 78.4308 316.059 78.8148 316.443C79.1988 316.827 79.3908 317.371 79.3908 318.075V319.515C79.3908 320.155 79.1988 320.667 78.8148 321.051C78.4308 321.435 77.8868 321.627 77.1828 321.627H45.7908V347.067H80.0627C80.7668 347.067 81.3108 347.259 81.6948 347.643C82.0788 348.027 82.2708 348.571 82.2708 349.275V350.715C82.2708 351.355 82.0788 351.867 81.6948 352.251C81.3108 352.635 80.7668 352.827 80.0627 352.827H41.8548ZM113.371 353.787C109.019 353.787 105.403 352.859 102.523 351.003C99.707 349.083 97.595 346.491 96.187 343.227C94.843 339.963 94.171 336.315 94.171 332.283V305.019C94.171 304.379 94.363 303.867 94.747 303.483C95.131 303.099 95.643 302.907 96.283 302.907H97.915C98.555 302.907 99.067 303.099 99.451 303.483C99.835 303.867 100.027 304.379 100.027 305.019V331.803C100.027 342.747 104.795 348.219 114.331 348.219C118.875 348.219 122.523 346.779 125.275 343.899C128.027 340.955 129.403 336.923 129.403 331.803V305.019C129.403 304.379 129.595 303.867 129.979 303.483C130.363 303.099 130.875 302.907 131.515 302.907H133.147C133.787 302.907 134.299 303.099 134.683 303.483C135.067 303.867 135.259 304.379 135.259 305.019V350.715C135.259 351.355 135.067 351.867 134.683 352.251C134.299 352.635 133.787 352.827 133.147 352.827H131.515C130.875 352.827 130.363 352.635 129.979 352.251C129.595 351.867 129.403 351.355 129.403 350.715V346.203C127.675 348.443 125.595 350.267 123.163 351.675C120.795 353.083 117.531 353.787 113.371 353.787ZM153.015 371.067C152.375 371.067 151.863 370.875 151.479 370.491C151.095 370.107 150.903 369.595 150.903 368.955V305.019C150.903 304.379 151.095 303.867 151.479 303.483C151.863 303.099 152.375 302.907 153.015 302.907H154.647C155.287 302.907 155.799 303.099 156.183 303.483C156.567 303.867 156.759 304.379 156.759 305.019V309.531C158.359 307.355 160.439 305.563 162.999 304.155C165.623 302.683 168.919 301.947 172.887 301.947C176.663 301.947 179.831 302.619 182.391 303.963C184.951 305.243 187.031 306.971 188.631 309.147C190.231 311.323 191.415 313.755 192.183 316.443C192.951 319.131 193.367 321.883 193.431 324.699C193.495 325.659 193.527 326.715 193.527 327.867C193.527 329.019 193.495 330.075 193.431 331.035C193.367 333.851 192.951 336.603 192.183 339.291C191.415 341.979 190.231 344.411 188.631 346.587C187.031 348.763 184.951 350.523 182.391 351.867C179.831 353.147 176.663 353.787 172.887 353.787C168.919 353.787 165.623 353.051 162.999 351.579C160.439 350.107 158.359 348.315 156.759 346.203V368.955C156.759 369.595 156.567 370.107 156.183 370.491C155.799 370.875 155.287 371.067 154.647 371.067H153.015ZM172.311 348.219C176.087 348.219 179.063 347.387 181.239 345.723C183.415 344.059 184.983 341.883 185.943 339.195C186.903 336.507 187.447 333.627 187.575 330.555C187.639 328.763 187.639 326.971 187.575 325.179C187.447 322.107 186.903 319.227 185.943 316.539C184.983 313.851 183.415 311.675 181.239 310.011C179.063 308.347 176.087 307.515 172.311 307.515C168.663 307.515 165.719 308.379 163.479 310.107C161.239 311.835 159.575 314.011 158.487 316.635C157.463 319.195 156.887 321.787 156.759 324.411C156.695 325.371 156.663 326.619 156.663 328.155C156.663 329.691 156.695 330.939 156.759 331.899C156.823 334.459 157.399 336.987 158.487 339.483C159.639 341.979 161.335 344.059 163.575 345.723C165.879 347.387 168.791 348.219 172.311 348.219ZM208.701 352.827C208.061 352.827 207.549 352.635 207.165 352.251C206.781 351.867 206.589 351.355 206.589 350.715V305.019C206.589 304.379 206.781 303.867 207.165 303.483C207.549 303.099 208.061 302.907 208.701 302.907H210.333C210.973 302.907 211.485 303.099 211.869 303.483C212.253 303.867 212.445 304.379 212.445 305.019V309.531C214.173 307.291 216.253 305.467 218.685 304.059C221.181 302.651 224.477 301.947 228.573 301.947C232.925 301.947 236.541 302.907 239.421 304.827C242.365 306.683 244.541 309.243 245.949 312.507C247.421 315.707 248.156 319.355 248.156 323.451V350.715C248.156 351.355 247.965 351.867 247.581 352.251C247.197 352.635 246.685 352.827 246.045 352.827H244.413C243.773 352.827 243.261 352.635 242.877 352.251C242.493 351.867 242.301 351.355 242.301 350.715V323.931C242.301 318.811 241.053 314.811 238.557 311.931C236.061 308.987 232.413 307.515 227.613 307.515C223.069 307.515 219.389 308.987 216.573 311.931C213.821 314.811 212.445 318.811 212.445 323.931V350.715C212.445 351.355 212.253 351.867 211.869 352.251C211.485 352.635 210.973 352.827 210.333 352.827H208.701ZM281.742 353.787C275.534 353.787 270.606 351.771 266.958 347.739C263.31 343.643 261.23 338.299 260.718 331.707C260.654 330.747 260.622 329.467 260.622 327.867C260.622 326.267 260.654 324.987 260.718 324.027C261.038 319.675 262.062 315.835 263.79 312.507C265.518 309.179 267.886 306.587 270.894 304.731C273.966 302.875 277.582 301.947 281.742 301.947C286.222 301.947 290.03 302.939 293.166 304.923C296.302 306.907 298.702 309.755 300.366 313.467C302.094 317.179 302.958 321.595 302.958 326.715V328.155C302.958 328.795 302.734 329.307 302.286 329.691C301.902 330.075 301.39 330.267 300.75 330.267H266.574C266.574 330.267 266.574 330.395 266.574 330.651C266.574 330.907 266.574 331.099 266.574 331.227C266.702 334.107 267.374 336.859 268.59 339.483C269.806 342.043 271.534 344.155 273.774 345.819C276.014 347.419 278.67 348.219 281.742 348.219C284.494 348.219 286.766 347.803 288.558 346.971C290.414 346.139 291.886 345.243 292.974 344.283C294.062 343.259 294.766 342.491 295.086 341.979C295.662 341.147 296.11 340.667 296.43 340.539C296.75 340.347 297.262 340.251 297.966 340.251H299.502C300.078 340.251 300.558 340.443 300.942 340.827C301.39 341.147 301.582 341.595 301.518 342.171C301.454 343.067 300.942 344.187 299.982 345.531C299.086 346.811 297.774 348.091 296.046 349.371C294.382 350.651 292.334 351.707 289.902 352.539C287.47 353.371 284.75 353.787 281.742 353.787ZM266.574 324.891H297.102V324.507C297.102 321.307 296.494 318.427 295.278 315.867C294.062 313.307 292.302 311.291 289.998 309.819C287.694 308.283 284.942 307.515 281.742 307.515C278.542 307.515 275.79 308.283 273.486 309.819C271.246 311.291 269.518 313.307 268.302 315.867C267.15 318.427 266.574 321.307 266.574 324.507V324.891ZM329.06 353.787C325.988 353.787 323.14 353.147 320.516 351.867C317.956 350.587 315.876 348.891 314.276 346.779C312.676 344.603 311.876 342.171 311.876 339.483C311.876 335.131 313.636 331.643 317.156 329.019C320.676 326.395 325.252 324.699 330.884 323.931L346.052 321.819V318.459C346.052 315.067 344.996 312.411 342.884 310.491C340.836 308.507 337.54 307.515 332.996 307.515C329.668 307.515 326.98 308.187 324.932 309.531C322.884 310.811 321.476 312.507 320.708 314.619C320.388 315.579 319.78 316.059 318.884 316.059H317.348C316.58 316.059 316.036 315.867 315.716 315.483C315.396 315.035 315.236 314.523 315.236 313.947C315.236 313.051 315.556 311.931 316.196 310.587C316.9 309.243 317.956 307.931 319.364 306.651C320.772 305.307 322.596 304.187 324.836 303.291C327.076 302.395 329.796 301.947 332.996 301.947C336.772 301.947 339.876 302.459 342.308 303.483C344.804 304.507 346.724 305.851 348.068 307.515C349.476 309.115 350.468 310.907 351.044 312.891C351.62 314.875 351.908 316.827 351.908 318.747V350.715C351.908 351.355 351.716 351.867 351.332 352.251C350.948 352.635 350.436 352.827 349.796 352.827H348.164C347.524 352.827 347.012 352.635 346.628 352.251C346.244 351.867 346.052 351.355 346.052 350.715V346.203C345.284 347.355 344.196 348.507 342.788 349.659C341.38 350.811 339.556 351.803 337.316 352.635C335.14 353.403 332.388 353.787 329.06 353.787ZM330.02 348.219C332.964 348.219 335.652 347.579 338.084 346.299C340.516 345.019 342.436 343.067 343.844 340.443C345.316 337.755 346.052 334.395 346.052 330.363V327.099L333.668 328.827C328.42 329.531 324.452 330.747 321.764 332.475C319.076 334.203 317.732 336.379 317.732 339.003C317.732 341.115 318.34 342.843 319.556 344.187C320.772 345.531 322.308 346.555 324.164 347.259C326.084 347.899 328.036 348.219 330.02 348.219ZM391.089 353.787C385.777 353.787 381.265 352.859 377.553 351.003C373.841 349.083 370.993 346.171 369.009 342.267C367.025 338.299 365.937 333.307 365.745 327.291C365.681 324.411 365.648 321.723 365.648 319.227C365.648 316.731 365.681 314.043 365.745 311.163C365.937 305.211 367.089 300.283 369.201 296.379C371.313 292.411 374.225 289.467 377.937 287.547C381.713 285.627 386.097 284.667 391.089 284.667C396.081 284.667 400.433 285.627 404.145 287.547C407.921 289.467 410.865 292.411 412.977 296.379C415.153 300.283 416.305 305.211 416.433 311.163C416.561 314.043 416.625 316.731 416.625 319.227C416.625 321.723 416.561 324.411 416.433 327.291C416.305 333.307 415.217 338.299 413.169 342.267C411.185 346.171 408.337 349.083 404.625 351.003C400.913 352.859 396.401 353.787 391.089 353.787ZM391.089 348.027C396.593 348.027 401.105 346.363 404.625 343.035C408.209 339.707 410.128 334.299 410.385 326.811C410.513 323.931 410.577 321.403 410.577 319.227C410.577 317.051 410.513 314.523 410.385 311.643C410.257 306.651 409.329 302.587 407.601 299.451C405.937 296.315 403.665 294.043 400.785 292.635C397.969 291.163 394.737 290.427 391.089 290.427C387.505 290.427 384.273 291.163 381.393 292.635C378.577 294.043 376.305 296.315 374.577 299.451C372.913 302.587 371.985 306.651 371.793 311.643C371.729 314.523 371.697 317.051 371.697 319.227C371.697 321.403 371.729 323.931 371.793 326.811C372.049 334.299 373.969 339.707 377.553 343.035C381.137 346.363 385.649 348.027 391.089 348.027ZM452.059 353.787C446.875 353.787 442.459 352.955 438.811 351.291C435.227 349.627 432.475 347.483 430.555 344.859C428.635 342.235 427.611 339.451 427.483 336.507C427.483 335.995 427.675 335.547 428.059 335.163C428.443 334.779 428.923 334.587 429.499 334.587H431.419C432.059 334.587 432.539 334.779 432.859 335.163C433.243 335.547 433.467 335.995 433.531 336.507C433.787 338.299 434.587 340.091 435.931 341.883C437.275 343.611 439.259 345.083 441.883 346.299C444.507 347.451 447.899 348.027 452.059 348.027C458.331 348.027 462.907 346.907 465.787 344.667C468.667 342.363 470.107 339.291 470.107 335.451C470.107 332.891 469.339 330.843 467.803 329.307C466.331 327.707 464.059 326.299 460.987 325.083C457.915 323.803 453.979 322.395 449.179 320.859C444.635 319.387 440.891 317.883 437.947 316.347C435.003 314.747 432.827 312.827 431.419 310.587C430.075 308.347 429.403 305.467 429.403 301.947C429.403 298.683 430.267 295.771 431.995 293.211C433.723 290.587 436.219 288.507 439.483 286.971C442.811 285.435 446.843 284.667 451.579 284.667C455.355 284.667 458.651 285.179 461.467 286.203C464.283 287.227 466.619 288.603 468.475 290.331C470.331 291.995 471.739 293.819 472.699 295.803C473.659 297.723 474.171 299.611 474.235 301.467C474.235 301.915 474.075 302.363 473.755 302.811C473.435 303.195 472.923 303.387 472.219 303.387H470.299C469.979 303.387 469.563 303.259 469.051 303.003C468.603 302.747 468.315 302.235 468.187 301.467C467.803 298.267 466.107 295.643 463.099 293.595C460.155 291.483 456.315 290.427 451.579 290.427C446.843 290.427 442.971 291.355 439.963 293.211C436.955 295.067 435.451 297.979 435.451 301.947C435.451 304.507 436.123 306.619 437.467 308.283C438.811 309.883 440.923 311.323 443.803 312.603C446.683 313.819 450.395 315.163 454.939 316.635C459.739 318.171 463.707 319.707 466.843 321.243C469.979 322.779 472.315 324.667 473.851 326.907C475.387 329.083 476.155 331.931 476.155 335.451C476.155 339.355 475.163 342.683 473.179 345.435C471.259 348.123 468.507 350.203 464.923 351.675C461.339 353.083 457.051 353.787 452.059 353.787Z"
              fill="url(#paint0_linear_304_2)"/>
        <path d="M197.345 233.105C190.195 225.898 184.683 217.453 180.81 207.769C176.937 198.085 175 188.363 175 178.604C175 167.194 177.048 156.646 181.145 146.962C185.241 137.278 191.163 128.533 198.909 120.726C205.463 113.969 213.582 108.639 223.265 104.736C232.948 100.832 243.636 97.9421 255.33 96.0653C267.024 94.1886 279.574 93.1752 292.981 93.025C305.595 92.8838 318.406 93.3406 331.415 94.3954C332.843 94.5112 333.985 95.6279 334.131 97.0531C335.443 109.881 336.065 122.576 335.995 135.139C335.92 148.501 335.064 161.151 333.425 173.087C331.786 185.023 328.956 196.02 324.934 206.08C320.912 216.139 315.475 224.622 308.622 231.528C300.876 239.485 292.31 245.529 282.926 249.657C273.541 253.786 263.635 255.851 253.207 255.851C241.886 255.851 231.719 254.086 222.706 250.558C213.694 247.03 205.24 241.212 197.345 233.105ZM225.36 225.639C225.034 226.871 225.536 228.179 226.637 228.82C230.054 230.809 233.846 232.312 238.012 233.33C242.928 234.531 247.993 235.131 253.207 235.131C260.506 235.131 267.768 233.517 274.993 230.289C282.218 227.061 288.735 222.52 294.545 216.664C299.163 211.56 302.999 204.991 306.053 196.959C309.106 188.926 311.266 180.218 312.533 170.834C313.799 161.451 314.544 151.804 314.767 141.895C314.967 133.007 314.898 124.542 314.559 116.5C314.494 114.942 313.233 113.703 311.673 113.66C299.219 113.312 287.96 113.453 277.898 114.082C267.098 114.758 257.564 115.996 249.297 117.798C241.029 119.6 233.99 121.964 228.181 124.892C222.371 127.82 217.753 131.085 214.327 134.689C208.368 140.544 203.713 147.037 200.361 154.169C197.01 161.301 195.334 168.395 195.334 175.451C195.334 181.907 196.712 188.964 199.468 196.621C201.62 202.602 204.25 207.621 207.357 211.679C208.608 213.311 211.064 212.966 212.055 211.164C218.842 198.816 227.048 187.588 236.672 177.478C241.365 172.548 246.337 167.972 251.588 163.752C254.36 161.524 257.415 165.237 255.155 167.982C250.342 173.827 246.043 179.845 242.258 186.036C234.729 198.35 229.096 211.551 225.36 225.639Z"
              fill="white"/>
    </g>
    <defs>
        <filter id="filter0_d_304_2" x="23.7428" y="77" width="468.412" height="310.067" filterUnits="userSpaceOnUse"
                color-interpolation-filters="sRGB">
            <feFlood flood-opacity="0" result="BackgroundImageFix"/>
            <feColorMatrix in="SourceAlpha" type="matrix" values="0 0 0 0 0 0 0 0 0 0 0 0 0 0 0 0 0 0 127 0"
                           result="hardAlpha"/>
            <feOffset/>
            <feGaussianBlur stdDeviation="8"/>
            <feComposite in2="hardAlpha" operator="out"/>
            <feColorMatrix type="matrix" values="0 0 0 0 0 0 0 0 0 0 0 0 0 0 0 0 0 0 0.25 0"/>
            <feBlend mode="normal" in2="BackgroundImageFix" result="effect1_dropShadow_304_2"/>
            <feBlend mode="normal" in="SourceGraphic" in2="effect1_dropShadow_304_2" result="shape"/>
        </filter>
        <linearGradient id="paint0_linear_304_2" x1="10" y1="320.019" x2="501.719" y2="320.019"
                        gradientUnits="userSpaceOnUse">
            <stop stop-color="#40D986"/>
            <stop offset="1" stop-color="#0079E9"/>
        </linearGradient>
    </defs>
</svg>